<svg version="1.1" viewBox="0.0 0.0 644.5774278215223 655.7296587926509" fill="none" stroke="none" stroke-linecap="square" stroke-miterlimit="10" xmlns:xlink="http://www.w3.org/1999/xlink" xmlns="http://www.w3.org/2000/svg"><clipPath id="p.0"><path d="m0 0l644.57745 0l0 655.7297l-644.57745 0l0 -655.7297z" clip-rule="nonzero"/></clipPath><g clip-path="url(#p.0)"><path fill="#000000" fill-opacity="0.0" d="m0 0l644.57745 0l0 655.7297l-644.57745 0z" fill-rule="evenodd"/><path fill="#ff0000" d="m5.6902885 327.86353l0 0c0 -176.94856 141.74594 -320.3937 316.59845 -320.3937l0 0c83.9671 0 164.49515 33.75567 223.86887 93.84114c59.37372 60.08548 92.72955 141.57887 92.72955 226.55257l0 0c0 176.94855 -141.74594 320.39368 -316.59842 320.39368l0 0c-174.8525 0 -316.59845 -143.44513 -316.59845 -320.39368z" fill-rule="evenodd"/><path stroke="#000000" stroke-width="1.0" stroke-linejoin="round" stroke-linecap="butt" d="m5.6902885 327.86353l0 0c0 -176.94856 141.74594 -320.3937 316.59845 -320.3937l0 0c83.9671 0 164.49515 33.75567 223.86887 93.84114c59.37372 60.08548 92.72955 141.57887 92.72955 226.55257l0 0c0 176.94855 -141.74594 320.39368 -316.59842 320.39368l0 0c-174.8525 0 -316.59845 -143.44513 -316.59845 -320.39368z" fill-rule="evenodd"/><path fill="#ffffff" d="m11.834515 315.48654l620.90857 -0.021514893l0 24.776764l-620.90857 0.021514893z" fill-rule="evenodd"/><path stroke="#000000" stroke-width="2.0" stroke-linejoin="round" stroke-linecap="butt" d="m11.834515 315.48654l620.90857 -0.021514893l0 24.776764l-620.90857 0.021514893z" fill-rule="evenodd"/><path fill="#ffffff" d="m463.07376 444.61255l78.920074 -231.72311l29.425598 0l-78.920074 231.72311z" fill-rule="evenodd"/><path stroke="#000000" stroke-width="2.0" stroke-linejoin="round" stroke-linecap="butt" d="m463.07376 444.61255l78.920074 -231.72311l29.425598 0l-78.920074 231.72311z" fill-rule="evenodd"/><path fill="#ffffff" d="m156.02124 444.60852l153.80844 -383.27957l27.85437 0l-153.80844 383.27957z" fill-rule="evenodd"/><path stroke="#000000" stroke-width="2.0" stroke-linejoin="round" stroke-linecap="butt" d="m156.02124 444.60852l153.80844 -383.27957l27.85437 0l-153.80844 383.27957z" fill-rule="evenodd"/><path fill="#ffffff" d="m336.21002 594.4l-153.80844 -383.27954l-27.854355 0l153.80846 383.27954z" fill-rule="evenodd"/><path stroke="#000000" stroke-width="2.0" stroke-linejoin="round" stroke-linecap="butt" d="m336.21002 594.4l-153.80844 -383.27954l-27.854355 0l153.80846 383.27954z" fill-rule="evenodd"/><path fill="#ffffff" d="m11.834515 315.4879l620.90857 -0.021514893l0 24.776764l-620.90857 0.021514893z" fill-rule="evenodd"/><path stroke="#000000" stroke-width="2.0" stroke-linejoin="round" stroke-linecap="butt" d="m11.834515 315.4879l620.90857 -0.021514893l0 24.776764l-620.90857 0.021514893z" fill-rule="evenodd"/><path fill="#ffffff" d="m183.8642 444.61255l-78.92007 -231.72311l-29.425598 0l78.92007 231.72311z" fill-rule="evenodd"/><path stroke="#000000" stroke-width="2.0" stroke-linejoin="round" stroke-linecap="butt" d="m183.8642 444.61255l-78.92007 -231.72311l-29.425598 0l78.92007 231.72311z" fill-rule="evenodd"/><path fill="#ffffff" d="m308.3664 594.4l153.80844 -383.27954l27.85437 0l-153.80844 383.27954z" fill-rule="evenodd"/><path stroke="#000000" stroke-width="2.0" stroke-linejoin="round" stroke-linecap="butt" d="m308.3664 594.4l153.80844 -383.27954l27.85437 0l-153.80844 383.27954z" fill-rule="evenodd"/><path fill="#ffffff" d="m490.9167 444.60852l-153.80844 -383.27957l-27.85434 0l153.80844 383.27957z" fill-rule="evenodd"/><path stroke="#000000" stroke-width="2.0" stroke-linejoin="round" stroke-linecap="butt" d="m490.9167 444.60852l-153.80844 -383.27957l-27.85434 0l153.80844 383.27957z" fill-rule="evenodd"/></g></svg>