<svg version="1.1" viewBox="0.0 0.0 618.9343832020998 547.8897637795276" fill="none" stroke="none" stroke-linecap="square" stroke-miterlimit="10" xmlns:xlink="http://www.w3.org/1999/xlink" xmlns="http://www.w3.org/2000/svg"><clipPath id="p.0"><path d="m0 0l618.9344 0l0 547.8898l-618.9344 0l0 -547.8898z" clip-rule="nonzero"/></clipPath><g clip-path="url(#p.0)"><path fill="#000000" fill-opacity="0.0" d="m0 0l618.9344 0l0 547.8898l-618.9344 0z" fill-rule="evenodd"/><path fill="#ffffff" d="m10.839806 262.0443l597.25726 -0.020690918l0 23.819214l-597.25726 0.020690918z" fill-rule="evenodd"/><path stroke="#000000" stroke-width="2.0" stroke-linejoin="round" stroke-linecap="butt" d="m10.839806 262.0443l597.25726 -0.020690918l0 23.819214l-597.25726 0.020690918z" fill-rule="evenodd"/><path fill="#ffffff" d="m444.89062 386.18002l75.91388 -222.76782l28.304749 0l-75.91388 222.76782z" fill-rule="evenodd"/><path stroke="#000000" stroke-width="2.0" stroke-linejoin="round" stroke-linecap="butt" d="m444.89062 386.18002l75.91388 -222.76782l28.304749 0l-75.91388 222.76782z" fill-rule="evenodd"/><path fill="#ffffff" d="m149.53424 386.17618l147.94965 -368.4672l26.793335 0l-147.94965 368.4672z" fill-rule="evenodd"/><path stroke="#000000" stroke-width="2.0" stroke-linejoin="round" stroke-linecap="butt" d="m149.53424 386.17618l147.94965 -368.4672l26.793335 0l-147.94965 368.4672z" fill-rule="evenodd"/><path fill="#ffffff" d="m322.85934 530.1788l-147.94963 -368.46716l-26.79335 0l147.94965 368.46716z" fill-rule="evenodd"/><path stroke="#000000" stroke-width="2.0" stroke-linejoin="round" stroke-linecap="butt" d="m322.85934 530.1788l-147.94963 -368.46716l-26.79335 0l147.94965 368.46716z" fill-rule="evenodd"/><path fill="#ffffff" d="m10.839806 262.04562l597.25726 -0.020690918l0 23.819214l-597.25726 0.020690918z" fill-rule="evenodd"/><path stroke="#000000" stroke-width="2.0" stroke-linejoin="round" stroke-linecap="butt" d="m10.839806 262.04562l597.25726 -0.020690918l0 23.819214l-597.25726 0.020690918z" fill-rule="evenodd"/><path fill="#ffffff" d="m176.3166 386.18002l-75.91387 -222.76782l-28.304733 0l75.91387 222.76782z" fill-rule="evenodd"/><path stroke="#000000" stroke-width="2.0" stroke-linejoin="round" stroke-linecap="butt" d="m176.3166 386.18002l-75.91387 -222.76782l-28.304733 0l75.91387 222.76782z" fill-rule="evenodd"/><path fill="#ffffff" d="m296.07632 530.1788l147.94965 -368.46716l26.793335 0l-147.94965 368.46716z" fill-rule="evenodd"/><path stroke="#000000" stroke-width="2.0" stroke-linejoin="round" stroke-linecap="butt" d="m296.07632 530.1788l147.94965 -368.46716l26.793335 0l-147.94965 368.46716z" fill-rule="evenodd"/><path fill="#ffffff" d="m471.673 386.17618l-147.94965 -368.4672l-26.793335 0l147.94965 368.4672z" fill-rule="evenodd"/><path stroke="#000000" stroke-width="2.0" stroke-linejoin="round" stroke-linecap="butt" d="m471.673 386.17618l-147.94965 -368.4672l-26.793335 0l147.94965 368.4672z" fill-rule="evenodd"/></g></svg>